# xmcd CD database file
#
# Track frame offsets:
#	150
#	29627
#	42647
#	58377
#	73571
#	87831
#	100530
#	127655
#	138407
#	153586
#	165673
#	177755
#	191272
#	204849
#	217864
#	230654
#	244548
#	256538
#	269095
#	279075
#	287639
#	293756
#	308868
#	323290
#
# Disc length: 4411 seconds
#
# Revision: 0
# Processed by: cddbd v1.5.1PL0 Copyright (c) Steve Scherf et al.
# Submitted via: CDex 1.51
#
DISCID=4c113918
DTITLE=Various Artist - 104 Hans Moser and Paul Hörbiger
DYEAR=1900
DGENRE=Deutsche Oldies
TTITLE0=Hans Moser - Der Dienstmann
TTITLE1=Hans Moser - Kleines Schwipserl
TTITLE2=Hans Moser - Die alte Standuhr
TTITLE3=Hans Moser - In der Kellergass'n
TTITLE4=Hans Moser - Die Reblaus
TTITLE5=Hans Moser - Zuhaus ist zuhaus
TTITLE6=Hans Moser - Brüderlein fein
TTITLE7=Hans Moser - Hobellied
TTITLE8=Paul Hörbiger - Der alte Sünder
TTITLE9=Paul Hörbiger - Hallo Dienstmann
TTITLE10=Paul Hörbiger - Der narrische Kastanienbaum
TTITLE11=Paul Hörbiger - S' wird schöne Maderln geb'n
TTITLE12=Paul Hörbiger - Heinerle, Heinerle hab ka Geld
TTITLE13=Paul Hörbiger - Hobellied
TTITLE14=Paul Hörbiger - Stellt's meine Roß' in Stall
TTITLE15=Paul Hörbiger - Jünger wird' ma nimmer
TTITLE16=Paul Hörbiger - Erst wann's aus wird sein
TTITLE17=Paul Hörbiger - Stell' dir vor es geht das Licht aus
TTITLE18=Paul Hörbiger - S' Herz von an echten Weana
TTITLE19=Paul Hörbiger - Unsre Vater is a Hausherr
TTITLE20=Paul Hörbiger - Es steht ein alter Nußbaum
TTITLE21=Maria Hellwig - Erzherzog-Johann-Jodler
TTITLE22=Ludwig Baumann und der Basf-Chor - Am Brunnen vor dem Tore
TTITLE23=Wiener Sängerknaben - Kein schöner Land in dieser Zeit
EXTD=
EXTT0=
EXTT1=
EXTT2=
EXTT3=
EXTT4=
EXTT5=
EXTT6=
EXTT7=
EXTT8=
EXTT9=
EXTT10=
EXTT11=
EXTT12=
EXTT13=
EXTT14=
EXTT15=
EXTT16=
EXTT17=
EXTT18=
EXTT19=
EXTT20=
EXTT21=
EXTT22=
EXTT23=
PLAYORDER=
